<?xml version="1.0" standalone="no"?>
<!DOCTYPE svg PUBLIC "-//W3C//DTD SVG 20010904//EN"
 "http://www.w3.org/TR/2001/REC-SVG-20010904/DTD/svg10.dtd">
<svg version="1.0" xmlns="http://www.w3.org/2000/svg"
 width="1084.000000pt" height="1084.000000pt" viewBox="0 0 1084.000000 1084.000000"
 preserveAspectRatio="xMidYMid meet">
<metadata>
Created by potrace 1.14, written by Peter Selinger 2001-2017
</metadata>
<g transform="translate(0.000000,1084.000000) scale(0.100000,-0.100000)"
fill="#000000" stroke="none">
<path d="M6378 8995 c-2 -1 -52 -5 -113 -8 -741 -41 -1350 -495 -1793 -1337
-266 -506 -502 -1277 -636 -2080 -14 -85 -28 -166 -30 -180 -3 -14 -5 -34 -5
-45 -3 -47 -10 -48 -172 -6 -304 78 -524 111 -704 105 -224 -7 -331 -75 -342
-216 -12 -149 89 -360 316 -663 41 -55 77 -102 81 -105 3 -3 28 -32 54 -65 71
-88 184 -216 331 -375 93 -100 562 -569 696 -695 167 -159 361 -340 369 -345
4 -3 47 -42 96 -86 148 -136 168 -153 171 -150 2 1 -179 366 -401 809 -223
444 -402 807 -399 807 9 0 180 -92 448 -240 83 -46 175 -97 205 -113 174 -95
920 -527 1050 -607 8 -5 56 -33 105 -63 381 -228 900 -554 1440 -902 38 -25
63 -58 -286 375 -161 201 -299 372 -306 380 -11 14 -87 108 -166 205 -17 22
-166 206 -330 410 -164 203 -307 379 -316 391 -28 32 -174 213 -196 243 -11
14 -64 80 -118 146 -54 66 -104 127 -112 136 -7 9 -56 72 -110 140 l-96 124
93 -97 c51 -53 190 -195 308 -315 118 -121 352 -361 520 -533 445 -456 476
-489 801 -821 163 -167 343 -352 400 -411 57 -58 237 -243 400 -410 164 -166
349 -357 413 -423 64 -65 116 -116 116 -111 0 4 -18 69 -40 144 -22 75 -43
149 -45 164 -3 15 -10 39 -15 54 -6 15 -42 151 -79 303 -84 337 -83 331 -87
356 -1 11 -12 58 -23 105 -18 79 -92 474 -106 565 -5 37 -7 52 -20 130 -2 17
-9 66 -15 110 -6 44 -13 90 -15 102 -2 12 -7 57 -10 100 -4 43 -9 81 -11 84
-1 3 -6 45 -9 94 -4 48 -8 97 -11 108 -23 122 -23 901 1 1048 2 13 6 56 10 94
9 96 51 351 76 460 94 408 241 755 452 1063 l50 72 -43 98 c-23 53 -80 174
-126 267 -315 642 -672 1102 -1053 1357 -136 91 -238 141 -380 188 -98 32
-274 73 -283 65z"/>
</g>
</svg>
