<?xml version="1.0" standalone="no"?>
<!DOCTYPE svg PUBLIC "-//W3C//DTD SVG 20010904//EN"
 "http://www.w3.org/TR/2001/REC-SVG-20010904/DTD/svg10.dtd">
<svg version="1.0" xmlns="http://www.w3.org/2000/svg"
 width="612.000000pt" height="612.000000pt" viewBox="0 0 612.000000 612.000000"
 preserveAspectRatio="xMidYMid meet">
<metadata>
Created by potrace 1.14, written by Peter Selinger 2001-2017
</metadata>
<g transform="translate(0.000000,612.000000) scale(0.100000,-0.100000)"
fill="#000000" stroke="none">
<path d="M3125 5960 c-4 -6 -13 -9 -21 -6 -8 3 -14 1 -14 -4 0 -6 -9 -6 -24 0
-13 5 -26 7 -28 4 -3 -2 -20 -6 -39 -7 -19 -2 -40 -6 -47 -11 -7 -4 -12 -2
-12 4 0 6 -5 8 -11 4 -6 -3 -28 -9 -48 -11 -20 -3 -42 -10 -50 -17 -12 -8 -13
-8 -7 2 5 9 1 11 -16 8 -13 -3 -25 -5 -28 -6 -3 -2 -8 -2 -12 -1 -5 0 -8 -4
-8 -10 0 -5 -4 -7 -10 -4 -5 3 -19 1 -31 -6 -16 -8 -23 -8 -29 1 -5 9 -9 9
-14 1 -4 -6 -12 -9 -17 -6 -5 4 -9 2 -9 -4 0 -5 -11 -8 -25 -7 -13 2 -22 0
-20 -4 3 -4 -7 -7 -21 -7 -15 0 -30 -7 -35 -14 -6 -9 -9 -10 -9 -2 0 8 -10 6
-32 -5 -40 -20 -58 -23 -58 -10 0 5 -7 2 -16 -6 -8 -9 -20 -14 -25 -11 -5 4
-9 1 -9 -4 0 -6 -11 -11 -25 -11 -14 0 -25 -4 -25 -9 0 -6 -9 -8 -20 -6 -11 2
-22 0 -25 -6 -4 -5 -15 -9 -26 -9 -10 0 -19 -4 -19 -8 0 -5 -6 -9 -12 -9 -22
-1 -43 -8 -49 -16 -3 -5 -15 -10 -25 -12 -10 -2 -20 -4 -21 -5 -2 -2 -9 -3
-15 -4 -7 -1 -12 -7 -11 -13 1 -6 -3 -10 -10 -9 -19 1 -117 -45 -117 -56 0 -5
-4 -6 -10 -3 -5 3 -10 1 -10 -5 0 -6 -4 -8 -10 -5 -5 3 -10 1 -10 -5 0 -6 -5
-8 -11 -5 -6 4 -17 -2 -25 -14 -8 -12 -24 -21 -35 -21 -11 0 -17 -4 -14 -10 3
-5 -1 -10 -9 -10 -9 0 -16 -5 -16 -11 0 -5 -4 -7 -10 -4 -5 3 -10 1 -10 -5 0
-6 -4 -9 -9 -6 -5 3 -12 -1 -15 -10 -3 -8 -10 -12 -16 -9 -6 3 -13 -1 -16 -9
-3 -9 -12 -16 -20 -16 -8 0 -13 -6 -11 -12 1 -7 -3 -12 -9 -11 -6 1 -25 -11
-42 -27 -18 -16 -32 -26 -32 -23 0 3 -11 -7 -25 -23 -14 -16 -25 -25 -25 -21
0 5 -17 -9 -37 -30 -21 -21 -37 -41 -35 -45 1 -5 -5 -8 -14 -8 -8 0 -13 -4
-10 -8 3 -5 -4 -15 -15 -23 -11 -8 -27 -28 -35 -46 -9 -17 -24 -33 -35 -36
-11 -3 -18 -9 -17 -14 2 -5 -9 -22 -24 -38 -16 -16 -28 -36 -28 -43 0 -7 -4
-11 -9 -7 -5 3 -12 1 -16 -5 -3 -5 -1 -10 6 -10 7 0 4 -7 -7 -15 -10 -8 -15
-15 -11 -15 4 0 -1 -10 -13 -22 -11 -12 -20 -30 -20 -40 0 -10 -4 -18 -10 -18
-5 0 -10 -12 -10 -26 0 -16 -4 -23 -11 -18 -8 4 -8 0 0 -15 10 -18 9 -20 -6
-14 -10 3 -15 3 -11 -2 4 -4 0 -14 -10 -22 -9 -8 -11 -12 -4 -8 6 3 12 1 12
-4 0 -6 -5 -11 -10 -11 -6 0 -9 -3 -8 -7 1 -5 -6 -26 -16 -48 -10 -22 -19 -48
-20 -58 0 -10 -5 -21 -11 -25 -10 -7 -16 -23 -18 -54 -1 -10 -5 -18 -10 -18
-5 0 -3 -8 4 -17 10 -11 10 -14 1 -9 -11 6 -17 -5 -13 -26 0 -5 -4 -8 -11 -8
-6 0 -8 -3 -5 -7 4 -3 1 -13 -6 -21 -10 -13 -9 -14 3 -7 12 7 13 6 3 -7 -7 -8
-10 -18 -6 -21 3 -4 1 -7 -7 -7 -10 0 -10 -4 1 -17 12 -14 12 -16 0 -8 -11 6
-13 4 -8 -8 3 -9 1 -19 -4 -23 -6 -3 -9 -17 -6 -30 2 -13 1 -24 -2 -24 -4 0
-7 -8 -8 -17 -1 -10 -3 -30 -6 -45 -3 -17 0 -25 6 -21 6 3 7 2 4 -4 -3 -5 -9
-24 -12 -42 -4 -25 -2 -31 7 -25 9 6 9 3 -1 -9 -10 -13 -10 -17 -1 -17 9 0 9
-4 -1 -17 -12 -15 -12 -16 1 -8 13 8 13 7 1 -8 -11 -14 -11 -20 -1 -32 9 -10
9 -15 1 -15 -6 0 -11 -5 -11 -11 0 -5 6 -7 13 -3 8 5 8 2 -2 -9 -11 -14 -11
-17 0 -17 9 0 10 -3 4 -8 -10 -7 -12 -14 -21 -56 -2 -10 -8 -23 -13 -30 -5 -6
-9 -14 -8 -18 1 -3 -8 -18 -21 -33 -12 -14 -20 -31 -16 -38 4 -7 4 -9 -1 -5
-8 8 -39 -29 -40 -47 -1 -5 -6 -9 -13 -7 -7 1 -17 -9 -22 -23 -5 -14 -21 -36
-35 -49 -13 -13 -22 -26 -19 -29 3 -3 -3 -12 -15 -19 -12 -7 -21 -19 -21 -26
0 -7 -4 -10 -10 -7 -9 6 -14 -8 -11 -28 1 -5 -3 -6 -8 -3 -4 3 -20 -12 -35
-34 -14 -22 -31 -40 -37 -40 -5 0 -8 -4 -5 -8 3 -5 -4 -14 -14 -22 -10 -8 -17
-17 -14 -22 3 -4 1 -8 -4 -8 -5 0 -12 -9 -15 -21 -3 -12 -10 -18 -15 -15 -9 5
-37 -42 -33 -57 1 -5 -3 -6 -9 -2 -5 3 -10 2 -10 -2 0 -5 -11 -20 -24 -35 -14
-14 -22 -29 -19 -32 4 -3 1 -6 -6 -6 -7 0 -9 -4 -6 -10 3 -5 1 -10 -5 -10 -6
0 -8 -5 -4 -12 4 -7 3 -8 -5 -4 -7 5 -15 -4 -23 -24 -8 -23 -13 -28 -19 -18
-8 13 -9 11 -9 -27 0 -3 -9 -14 -20 -25 -26 -26 -42 -68 -33 -83 3 -7 3 -9 -2
-5 -12 12 -30 -14 -44 -64 -20 -73 -16 -146 11 -177 9 -11 14 -22 11 -25 -4
-3 -1 -6 6 -6 12 0 24 -8 60 -41 9 -8 22 -14 28 -12 6 2 18 -3 27 -12 12 -12
16 -13 16 -3 0 9 3 9 8 2 7 -11 46 -34 57 -34 3 0 3 6 -1 12 -4 7 2 5 13 -5
11 -9 23 -14 26 -10 4 3 7 2 7 -4 0 -5 6 -10 13 -11 19 -1 86 -27 94 -37 5 -4
1 -5 -7 -1 -8 4 -4 -2 9 -13 13 -12 19 -21 15 -21 -5 0 -2 -5 6 -10 9 -6 11
-10 3 -10 -7 0 -10 -7 -7 -15 4 -8 10 -12 15 -10 4 3 2 -9 -5 -27 -7 -18 -12
-43 -11 -55 1 -13 -3 -19 -8 -16 -6 4 -8 0 -4 -10 3 -10 3 -17 -1 -17 -4 0
-16 -16 -26 -35 -11 -19 -23 -35 -28 -35 -5 0 -6 -5 -3 -10 3 -6 -1 -17 -9
-26 -9 -9 -14 -19 -11 -24 3 -4 -2 -10 -10 -14 -8 -3 -12 -12 -9 -21 4 -9 1
-15 -7 -15 -12 0 -12 -2 -1 -9 8 -4 13 -11 13 -15 -4 -31 19 -85 40 -91 10 -4
19 -13 19 -21 0 -8 13 -17 29 -20 17 -4 32 -13 35 -21 3 -8 1 -11 -4 -8 -6 3
-10 1 -10 -5 0 -6 -4 -8 -10 -5 -6 4 -7 -1 -3 -12 3 -10 2 -15 -2 -11 -9 9
-45 -45 -45 -67 0 -8 -5 -15 -11 -15 -5 0 -7 -4 -4 -10 3 -5 0 -10 -7 -10 -11
0 -11 -2 0 -9 7 -4 12 -12 11 -17 -5 -15 12 -54 22 -54 5 0 9 -6 9 -14 0 -7
11 -21 24 -32 14 -10 23 -21 20 -26 -3 -4 -1 -8 4 -8 6 0 18 -20 28 -44 10
-24 22 -42 26 -40 13 8 9 -11 -4 -24 -9 -9 -9 -12 1 -12 11 0 11 -3 0 -17 -11
-13 -11 -17 -1 -20 6 -3 12 -9 12 -14 0 -6 -4 -8 -8 -5 -4 2 -8 -3 -9 -12 -3
-48 -8 -72 -16 -72 -5 0 -4 -7 3 -15 9 -10 9 -15 1 -15 -6 0 -11 -9 -11 -21 0
-13 4 -18 12 -13 7 4 8 3 4 -5 -4 -6 -12 -9 -17 -6 -5 4 -9 -6 -9 -20 0 -14
-4 -24 -8 -21 -5 3 -8 -7 -7 -22 0 -15 -5 -33 -12 -41 -10 -9 -11 -17 -3 -26
7 -9 6 -16 -5 -25 -8 -7 -12 -16 -9 -21 3 -5 2 -9 -3 -9 -4 0 -8 -23 -8 -50 0
-33 4 -50 12 -50 7 0 13 -5 13 -11 0 -5 -6 -7 -12 -3 -10 6 -10 4 -2 -7 6 -8
10 -24 9 -37 -1 -12 2 -22 7 -22 5 0 6 -4 3 -10 -8 -13 19 -52 30 -42 5 4 5 1
1 -6 -8 -13 27 -65 38 -55 3 3 6 -1 6 -10 0 -10 6 -17 14 -17 8 0 17 -7 20
-16 4 -10 12 -14 23 -10 10 4 14 4 10 0 -10 -10 53 -46 70 -40 8 3 11 1 8 -4
-3 -6 3 -10 14 -10 11 0 23 -5 26 -11 4 -6 13 -8 20 -5 7 2 24 -2 39 -9 15 -8
24 -10 21 -5 -7 11 37 9 45 -2 3 -4 24 -1 45 7 34 11 40 11 43 -1 2 -8 8 -12
13 -9 5 4 9 0 9 -7 0 -10 3 -9 9 1 8 13 12 13 27 0 12 -9 15 -10 10 -1 -8 13
7 12 67 -5 10 -2 17 1 17 9 0 10 3 9 10 -2 7 -11 10 -11 10 -2 0 7 4 11 9 7
16 -9 71 -13 65 -4 -3 5 0 9 5 9 6 0 11 -5 11 -10 0 -7 6 -7 20 0 15 8 20 8
20 -2 0 -10 2 -10 9 1 6 9 11 10 15 2 4 -6 12 -11 17 -11 6 0 8 3 5 8 -5 9 66
8 81 -1 6 -4 19 0 27 9 10 9 16 11 16 4 0 -7 6 -10 14 -7 7 3 19 0 26 -6 10
-9 11 -9 6 1 -6 9 0 11 25 7 18 -3 36 -8 40 -11 4 -2 11 1 15 7 5 8 3 9 -6 4
-8 -5 -11 -4 -6 3 4 6 13 9 21 6 8 -4 12 -11 8 -18 -4 -6 1 -5 10 3 9 7 17 10
17 5 0 -5 5 -2 10 6 8 12 10 12 10 1 0 -10 5 -8 18 6 14 17 19 18 29 7 9 -9 9
-14 1 -16 -6 -2 3 -10 20 -17 18 -8 32 -17 32 -22 0 -5 8 -9 17 -9 9 0 14 -3
10 -6 -3 -3 5 -17 19 -31 25 -25 32 -39 14 -28 -6 4 -2 -8 9 -26 11 -18 18
-36 15 -41 -3 -4 0 -8 5 -8 6 0 11 -8 11 -18 0 -10 3 -22 7 -26 4 -3 8 -14 9
-24 5 -30 9 -47 18 -61 7 -10 5 -12 -3 -6 -10 6 -11 3 -2 -13 6 -11 12 -37 13
-56 2 -20 7 -36 11 -36 5 0 5 -5 2 -10 -4 -6 -1 -18 7 -27 9 -12 9 -15 1 -9
-7 4 -13 2 -13 -3 0 -6 5 -11 11 -11 5 0 7 -4 4 -10 -3 -5 -1 -10 6 -10 8 0 9
-3 0 -13 -6 -8 -8 -17 -4 -21 4 -3 8 -23 10 -43 1 -20 7 -39 11 -42 5 -3 8
-15 6 -26 -2 -10 3 -26 9 -34 9 -12 9 -13 0 -7 -7 4 -13 2 -13 -3 0 -6 5 -11
11 -11 5 0 7 -5 4 -10 -22 -35 -14 -36 1432 -35 776 0 1415 4 1419 8 5 4 3 11
-3 15 -6 4 -13 18 -14 32 -2 14 -8 28 -14 32 -6 5 -5 8 3 8 12 0 9 70 -5 92
-3 6 -6 24 -5 39 0 16 -3 29 -7 29 -5 0 -9 10 -10 23 -1 12 -3 37 -4 54 -1 18
-5 33 -8 33 -4 0 -6 13 -5 30 1 19 -3 30 -11 30 -9 0 -10 7 -4 22 6 16 4 27
-8 36 -9 7 -10 11 -3 7 16 -8 5 46 -12 57 -8 6 -8 8 0 8 6 0 11 7 11 15 0 8
-5 15 -10 15 -5 0 -7 9 -4 20 3 11 1 20 -5 20 -5 0 -6 5 -2 11 3 6 1 15 -7 19
-8 6 -12 24 -10 53 1 25 -2 48 -8 52 -6 3 -8 12 -4 18 11 17 10 41 -2 49 -6 5
-5 8 3 8 10 0 9 4 -3 16 -11 11 -13 20 -6 27 9 9 4 36 -8 47 -14 11 -30 60
-20 60 6 0 6 6 0 18 -6 11 -6 24 -1 32 12 19 10 80 -3 80 -5 0 -4 7 3 15 7 8
9 15 4 15 -5 0 -9 17 -8 37 1 20 -2 52 -6 70 -5 18 -4 33 0 33 5 0 5 14 0 30
-5 17 -5 30 0 30 4 0 4 18 -1 41 -5 22 -7 44 -4 49 3 5 0 12 -6 16 -8 4 -7 9
2 15 9 6 10 9 2 9 -12 0 -12 17 0 38 5 7 4 12 -2 12 -13 0 -10 22 4 32 6 5 5
8 -4 8 -11 0 -11 3 -1 15 7 8 10 26 8 40 -3 14 -2 25 2 25 5 0 6 9 3 20 -3 11
1 28 8 37 10 12 10 14 1 9 -15 -9 -16 6 0 22 9 9 9 12 -2 12 -10 0 -10 4 3 18
12 13 13 22 5 36 -7 13 -7 17 0 12 6 -3 13 -2 17 4 3 5 1 10 -6 10 -8 0 -9 3
0 13 6 8 8 17 4 20 -3 4 -2 7 4 7 6 0 14 7 17 16 4 10 2 13 -7 9 -6 -4 -3 1 7
9 11 9 16 16 12 16 -5 0 -3 7 4 15 6 8 9 18 6 24 -3 5 1 12 10 15 10 4 14 14
11 26 -3 12 -1 17 5 14 5 -3 12 3 15 15 3 12 10 21 16 21 6 0 7 3 4 7 -4 3 0
15 10 25 9 10 13 18 10 18 -4 0 7 14 23 30 31 31 39 47 19 34 -7 -4 -1 7 12
25 12 17 26 31 31 31 4 0 7 3 7 8 -1 4 -1 16 0 27 1 17 3 18 11 5 8 -13 10
-12 10 3 0 10 6 20 14 23 8 3 17 16 20 28 3 13 18 36 33 51 16 16 21 25 13 21
-8 -4 -4 2 9 13 13 12 19 21 15 21 -5 0 -1 5 9 11 9 6 15 14 12 20 -4 5 -1 9
4 9 6 0 10 6 8 13 -1 6 4 11 11 10 6 -2 12 3 12 11 0 8 6 17 13 19 9 4 8 6 -2
6 -10 1 -7 7 7 20 12 10 19 21 15 25 -3 3 -1 6 5 6 7 0 12 6 12 13 0 7 8 22
18 33 10 11 17 25 14 32 -2 6 1 12 8 12 6 0 8 5 5 10 -3 6 -1 10 5 10 6 0 9 4
5 9 -3 5 2 17 11 25 8 9 12 16 7 16 -4 0 -2 4 5 8 7 5 15 19 17 32 2 13 10 27
16 31 7 4 9 14 6 23 -4 9 -1 15 6 13 7 -1 11 6 11 16 -1 9 2 17 6 17 4 0 11 7
14 16 4 10 2 13 -7 9 -6 -4 -5 -1 3 7 16 14 23 31 24 61 0 9 4 17 8 17 4 0 5
7 2 15 -4 8 1 17 9 21 8 3 13 13 10 24 -3 10 0 21 7 25 8 5 8 10 0 20 -14 16
-4 38 12 29 7 -4 8 -2 4 5 -4 6 -2 18 4 26 10 12 10 15 -1 15 -12 0 -12 2 0 9
8 5 11 16 8 26 -5 11 -3 14 5 9 7 -5 9 -2 5 8 -3 9 0 21 6 28 9 10 9 11 -3 5
-13 -8 -13 -7 -1 9 13 15 13 19 0 27 -10 6 -11 9 -1 9 7 0 10 5 7 10 -3 6 -1
10 6 10 7 0 9 3 6 7 -4 3 -2 12 4 20 9 10 8 13 0 13 -14 0 -11 32 4 42 6 5 5
8 -4 8 -9 0 -10 4 -4 13 6 6 10 35 9 64 -1 28 2 49 6 47 8 -5 3 64 -5 73 -3 3
1 12 10 21 14 14 14 17 -3 29 -10 7 -13 13 -7 13 6 0 10 17 9 39 0 22 -4 37
-8 34 -12 -7 -5 41 7 49 7 5 7 8 0 8 -5 0 -9 20 -8 45 0 25 -4 45 -9 45 -6 0
-5 6 2 15 7 8 8 15 3 15 -6 0 -10 19 -11 43 -1 56 -7 110 -13 122 -3 6 -5 25
-4 43 1 17 -3 32 -7 32 -5 0 -6 5 -3 10 4 6 1 17 -5 25 -10 12 -10 15 1 15 10
0 10 3 3 8 -6 4 -10 15 -8 25 1 10 -4 21 -11 23 -8 3 -11 12 -8 20 3 8 1 14
-5 14 -5 0 -8 14 -6 31 2 17 -3 40 -10 51 -8 11 -12 27 -9 35 3 8 0 18 -6 23
-11 6 -17 24 -20 53 -1 5 -5 6 -10 2 -5 -3 -12 -1 -16 5 -3 5 -1 10 5 10 6 0
8 5 3 13 -4 6 -9 21 -10 32 -2 10 -8 22 -14 26 -8 4 -7 8 2 12 10 4 10 6 2 6
-7 1 -13 8 -13 16 0 8 -5 15 -11 15 -5 0 -7 5 -4 11 4 6 -1 17 -11 25 -11 9
-12 12 -4 8 11 -6 10 -2 -2 13 -10 11 -18 27 -18 36 0 9 -5 19 -12 23 -7 5 -8
2 -3 -7 5 -8 4 -11 -1 -6 -5 5 -9 12 -9 15 -2 19 -28 82 -34 82 -4 0 -13 16
-21 35 -7 19 -17 32 -22 29 -4 -3 -8 2 -8 10 0 20 -45 68 -55 58 -5 -4 -5 -1
-1 6 5 8 -6 26 -27 47 -19 19 -33 35 -31 35 2 0 -4 8 -13 18 -10 11 -21 17
-25 15 -7 -4 -12 12 -9 30 0 4 -6 7 -15 7 -8 0 -12 5 -9 10 3 6 -1 10 -9 10
-8 0 -18 9 -21 20 -3 11 -15 20 -26 20 -10 0 -19 6 -19 13 0 14 -41 53 -52 49
-5 -1 -8 4 -8 11 0 7 -9 19 -21 27 -11 8 -30 23 -41 32 -11 10 -29 20 -39 23
-11 4 -19 11 -19 16 0 5 -7 9 -16 9 -8 0 -13 4 -9 9 3 5 -4 12 -15 16 -11 3
-20 11 -20 17 0 5 -7 7 -16 4 -8 -3 -12 -2 -9 4 3 6 0 10 -8 10 -8 0 -20 7
-27 15 -16 20 -72 48 -64 32 3 -7 0 -5 -8 3 -25 28 -97 72 -108 65 -6 -3 -9
-1 -8 7 2 8 -8 14 -24 16 -16 2 -28 7 -28 11 0 5 -15 14 -32 21 -70 27 -88 35
-88 41 0 3 -6 6 -12 7 -36 3 -54 8 -59 15 -3 4 -16 9 -27 10 -12 1 -22 5 -22
9 0 4 -11 8 -24 8 -14 0 -28 5 -32 11 -3 6 -15 9 -25 6 -11 -3 -19 -1 -19 5 0
5 -4 7 -9 3 -5 -3 -13 0 -16 6 -4 5 -14 8 -22 5 -9 -4 -11 -2 -7 6 5 8 2 9 -9
5 -10 -3 -17 -3 -17 1 0 4 -12 9 -27 10 -15 1 -30 8 -35 15 -5 7 -8 8 -8 1 0
-6 -7 -11 -15 -11 -8 0 -15 5 -15 10 0 5 -6 7 -13 4 -7 -3 -21 1 -32 9 -15 11
-20 11 -27 1 -6 -9 -8 -9 -8 1 0 7 -4 10 -10 7 -5 -3 -10 -2 -10 3 0 5 -16 8
-35 7 -19 -1 -35 2 -35 7 0 5 -10 4 -21 -3 -12 -6 -19 -7 -15 -1 3 5 -5 12
-19 14 -15 3 -25 1 -25 -6 0 -6 -5 -4 -10 4 -5 8 -10 11 -10 6 0 -6 -5 -5 -12
2 -7 7 -17 8 -30 1 -10 -5 -18 -6 -18 -1 0 5 -10 8 -22 7 -13 -1 -35 2 -50 6
-17 4 -28 4 -28 -2 0 -6 -7 -6 -17 -1 -10 4 -25 8 -33 7 -8 -1 -21 4 -29 9
-12 9 -13 8 -6 -4 7 -13 6 -13 -7 -2 -12 9 -18 10 -23 2 -5 -8 -10 -8 -20 0
-10 8 -15 8 -20 0 -5 -8 -11 -8 -21 1 -11 9 -14 9 -14 0 0 -9 -5 -9 -21 0 -16
8 -20 8 -14 -1 6 -9 2 -9 -14 -1 -16 9 -21 9 -21 -1 0 -10 -2 -10 -9 1 -6 9
-10 10 -16 2 -5 -9 -10 -9 -20 -1 -9 7 -15 8 -19 1 -5 -7 -15 -7 -31 -1 -18 7
-25 6 -25 -3 0 -8 -3 -8 -9 2 -6 10 -10 10 -16 1 -6 -10 -9 -10 -15 0 -6 9 -9
9 -15 0z"/>
</g>
</svg>
